<svg width="100" height="32" viewBox="0 0 100 32" fill="none" xmlns="http://www.w3.org/2000/svg">
<path d="M22.9377 6.75195L22.8654 25.4199L20.1398 23.9521L20.1886 11.2227L13.0451 7.36133L13.0656 1.41699L22.9377 6.75195Z" fill="#375DFB"/>
<path d="M9.39968 6.58104L19.2715 11.9157L19.1997 30.5835L9.33383 25.272L9.39968 6.58104Z" fill="#375DFB"/>
<path d="M33.2347 18.1276C33.2347 16.4105 33.6124 14.9081 34.368 13.6202C35.1406 12.3324 36.231 11.3279 37.639 10.6068C39.047 9.88559 40.7297 9.52501 42.6872 9.52501C43.271 9.52501 43.872 9.56793 44.4902 9.65379C45.1083 9.73964 45.6063 9.85984 45.984 10.0144L45.2886 13.5945H45.0053C44.7477 13.4743 44.4301 13.3627 44.0523 13.2597C43.6745 13.1566 43.1852 13.1051 42.5842 13.1051C41.7085 13.1051 40.91 13.294 40.1889 13.6718C39.4677 14.0323 38.9011 14.5646 38.489 15.2686C38.0769 15.9726 37.8708 16.8226 37.8708 17.8185C37.8708 18.7801 38.1713 19.5012 38.7723 19.982C39.3733 20.4628 40.206 20.7032 41.2706 20.7032C41.8029 20.7032 42.2665 20.6517 42.6615 20.5487C43.0564 20.4456 43.417 20.3254 43.7432 20.1881H44.0265L43.3311 23.794C42.8847 23.9485 42.3867 24.0687 41.8373 24.1545C41.305 24.2404 40.7984 24.2833 40.3176 24.2833C38.8581 24.2833 37.5961 24.0687 36.5315 23.6394C35.4841 23.193 34.6685 22.5147 34.0846 21.6047C33.518 20.6774 33.2347 19.5184 33.2347 18.1276ZM44.5523 24L47.5143 8.70081C47.6001 8.32305 47.6774 7.90237 47.7461 7.43876C47.8148 6.95797 47.8663 6.48578 47.9006 6.02216C47.9522 5.54138 47.9693 5.10353 47.9522 4.7086L48.1324 4.42528H52.8973L49.0854 24H44.5523ZM59.1863 24.2833C57.7268 24.2833 56.4218 24.0773 55.2713 23.6652C54.1209 23.2359 53.2194 22.5662 52.5669 21.6562C51.9144 20.729 51.5882 19.527 51.5882 18.0503C51.5882 16.7797 51.7857 15.6292 52.1806 14.599C52.5927 13.5687 53.1593 12.6759 53.8805 11.9203C54.6017 11.1648 55.4516 10.581 56.4304 10.1689C57.4263 9.73964 58.508 9.52501 59.6757 9.52501C61.8392 9.52501 63.4103 10.0144 64.389 10.9931C65.3678 11.9718 65.8571 13.2511 65.8571 14.8308C65.8571 15.3631 65.8056 15.9211 65.7026 16.5049C65.6168 17.0887 65.4966 17.6468 65.342 18.1791H54.3956V15.5777H61.5559C61.5902 15.4232 61.616 15.2686 61.6331 15.1141C61.6503 14.9596 61.6589 14.805 61.6589 14.6505C61.6589 14.0495 61.4786 13.5687 61.118 13.2081C60.7746 12.8476 60.2337 12.6673 59.4954 12.6673C58.9974 12.6673 58.5338 12.7875 58.1045 13.0279C57.6753 13.2682 57.3061 13.5945 56.997 14.0066C56.7051 14.4187 56.4733 14.9166 56.3016 15.5004C56.1471 16.0671 56.0698 16.6938 56.0698 17.3807V17.767C56.0698 18.8659 56.4046 19.6558 57.0743 20.1366C57.7611 20.6174 58.7055 20.8577 59.9075 20.8577C60.6458 20.8577 61.3584 20.7805 62.0452 20.6259C62.7492 20.4714 63.3073 20.2911 63.7194 20.0851H63.9769L63.2815 23.6394C62.7321 23.8455 62.1053 24 61.4013 24.103C60.7145 24.2232 59.9761 24.2833 59.1863 24.2833ZM67.2216 14.6247C67.3418 14.0066 67.4448 13.3627 67.5307 12.693C67.6337 12.0234 67.6938 11.3795 67.711 10.7613L67.8655 10.5553C68.3807 10.3835 68.9473 10.229 69.5654 10.0916C70.2008 9.95428 70.8962 9.84267 71.6517 9.75681C72.4072 9.65379 73.24 9.60228 74.15 9.60228C74.4248 9.60228 74.7939 9.61086 75.2576 9.62803C75.7212 9.6452 76.1934 9.69672 76.6742 9.78257L75.9787 13.3369H75.6954C75.4207 13.2682 75.1288 13.2167 74.8197 13.1824C74.5106 13.1309 74.193 13.1051 73.8667 13.1051C73.2314 13.1051 72.6819 13.148 72.2183 13.2339C71.7547 13.3198 71.3512 13.4571 71.0078 13.646L71.8062 12.2552C71.8406 12.6673 71.8406 13.1395 71.8062 13.6718C71.7891 14.2041 71.7204 14.7621 71.6002 15.3459L69.926 24H65.3929L67.2216 14.6247ZM76.6116 14.6247C76.7318 14.0066 76.8348 13.3627 76.9206 12.693C77.0237 12.0234 77.0838 11.3795 77.1009 10.7613L77.2555 10.5553C77.7706 10.3835 78.3372 10.229 78.9554 10.0916C79.5907 9.95428 80.2861 9.84267 81.0416 9.75681C81.7972 9.65379 82.6299 9.60228 83.54 9.60228C83.8147 9.60228 84.1839 9.61086 84.6475 9.62803C85.1111 9.6452 85.5833 9.69672 86.0641 9.78257L85.3687 13.3369H85.0854C84.8106 13.2682 84.5187 13.2167 84.2097 13.1824C83.9006 13.1309 83.5829 13.1051 83.2567 13.1051C82.6214 13.1051 82.0719 13.148 81.6083 13.2339C81.1447 13.3198 80.7412 13.4571 80.3977 13.646L81.1962 12.2552C81.2305 12.6673 81.2305 13.1395 81.1962 13.6718C81.179 14.2041 81.1103 14.7621 80.9901 15.3459L79.316 24H74.7829L76.6116 14.6247ZM90.3604 24.3091C88.2999 24.3091 86.7287 23.9914 85.647 23.3561C84.5824 22.7208 84.0501 21.6476 84.0501 20.1366C84.0501 19.0033 84.3506 18.0932 84.9516 17.4064C85.5525 16.7024 86.3596 16.1873 87.3726 15.861C88.4029 15.5348 89.5533 15.3717 90.824 15.3717C91.4249 15.3717 91.9744 15.4232 92.4724 15.5262C92.9875 15.6121 93.3652 15.6979 93.6056 15.7838L93.1678 18.4882C92.8931 18.3508 92.5926 18.2478 92.2663 18.1791C91.9401 18.0932 91.5194 18.0503 91.0043 18.0503C90.1629 18.0503 89.4846 18.1963 88.9695 18.4882C88.4716 18.7801 88.2226 19.2351 88.2226 19.8532C88.2226 20.4199 88.4286 20.8148 88.8407 21.038C89.27 21.2441 89.8366 21.3471 90.5407 21.3471C90.9184 21.3471 91.3305 21.3128 91.7769 21.2441C92.2234 21.1754 92.6011 21.0638 92.9102 20.9093L92.8587 22.0683C92.6698 21.8279 92.5496 21.5188 92.4981 21.1411C92.4638 20.7461 92.4638 20.3426 92.4981 19.9305C92.5496 19.5012 92.6097 19.0977 92.6784 18.72L93.1935 15.9383C93.4854 14.7879 93.391 13.998 92.9102 13.5687C92.4294 13.1223 91.6224 12.8991 90.4891 12.8991C89.7165 12.8991 88.9953 12.9678 88.3256 13.1051C87.6731 13.2253 87.1237 13.3799 86.6772 13.5687H86.3681L87.0378 10.1174C87.6903 9.92852 88.3857 9.78257 89.1241 9.67954C89.8624 9.57652 90.6265 9.52501 91.4164 9.52501C93.0304 9.52501 94.344 9.75681 95.3571 10.2204C96.3873 10.6669 97.0913 11.3795 97.4691 12.3582C97.864 13.3198 97.9069 14.5904 97.5979 16.1701L97.057 19.0033C96.9368 19.673 96.808 20.377 96.6706 21.1153C96.5504 21.8536 96.5075 22.5577 96.5418 23.2273L96.3616 23.4334C95.4172 23.7081 94.4556 23.9227 93.4769 24.0773C92.4981 24.2318 91.4593 24.3091 90.3604 24.3091Z" fill="#0A0D14"/>
</svg>
